[34m[1mdetect: [0mweights=best.pt, source=rtmp://218.192.100.219/live/livestream3, sourceout=rtmp://218.192.100.219/live/livestream1, sourcecheck=http://218.192.100.219:1985/api/v1/streams/, data=data/VisDrone.yaml, imgsz=[640, 640], conf_thres=0.25, iou_thres=0.45, max_det=1000, device=, view_img=False, save_txt=False, save_conf=False, save_crop=False, nosave=False, classes=None, agnostic_nms=False, augment=False, visualize=False, update=False, project=runs/detect, name=exp, exist_ok=False, line_thickness=3, hide_labels=False, hide_conf=False, half=False, dnn=False, vid_stride=1
['ffmpeg', '-y', '-f', 'rawvideo', '-vcodec', 'rawvideo', '-pix_fmt', 'bgr24', '-s', '1920*1080', '-r', '25', '-i', '-', '-c:v', 'h264', '-pix_fmt', 'yuv420p', '-preset', 'ultrafast', '-flvflags', 'no_duration_filesize', '-f', 'flv', 'rtmp://218.192.100.219/live/livestream1']
ffmpeg version 4.1.3 Copyright (c) 2000-2019 the FFmpeg developers
  built with gcc 9 (Ubuntu 9.4.0-1ubuntu1~20.04.1)
  configuration: --disable-x86asm --enable-gpl --enable-libx264
  libavutil      56. 22.100 / 56. 22.100
  libavcodec     58. 35.100 / 58. 35.100
  libavformat    58. 20.100 / 58. 20.100
  libavdevice    58.  5.100 / 58.  5.100
  libavfilter     7. 40.101 /  7. 40.101
  libswscale      5.  3.100 /  5.  3.100
  libswresample   3.  3.100 /  3.  3.100
  libpostproc    55.  3.100 / 55.  3.100
YOLOv5 🚀 2023-1-21 Python-3.7.16 torch-1.13.1+cu117 CUDA:0 (NVIDIA GeForce RTX 3060, 12036MiB)

Fusing layers... 
Model summary: 157 layers, 7037095 parameters, 0 gradients, 15.8 GFLOPs
Input #0, rawvideo, from 'pipe:':
  Duration: N/A, bitrate: 1244160 kb/s
    Stream #0:0: Video: rawvideo (BGR[24] / 0x18524742), bgr24, 1920x1080, 1244160 kb/s, 25 tbr, 25 tbn, 25 tbc
Stream mapping:
  Stream #0:0 -> #0:0 (rawvideo (native) -> h264 (libx264))
[libx264 @ 0x557f0b6f6fc0] using cpu capabilities: none!
[libx264 @ 0x557f0b6f6fc0] profile Constrained Baseline, level 4.0, 4:2:0, 8-bit
[libx264 @ 0x557f0b6f6fc0] 264 - core 164 r3106 eaa68fa - H.264/MPEG-4 AVC codec - Copyleft 2003-2023 - http://www.videolan.org/x264.html - options: cabac=0 ref=1 deblock=0:0:0 analyse=0:0 me=dia subme=0 psy=1 psy_rd=1.00:0.00 mixed_ref=0 me_range=16 chroma_me=1 trellis=0 8x8dct=0 cqm=0 deadzone=21,11 fast_pskip=1 chroma_qp_offset=0 threads=24 lookahead_threads=4 sliced_threads=0 nr=0 decimate=1 interlaced=0 bluray_compat=0 constrained_intra=0 bframes=0 weightp=0 keyint=250 keyint_min=25 scenecut=0 intra_refresh=0 rc=crf mbtree=0 crf=23.0 qcomp=0.60 qpmin=0 qpmax=69 qpstep=4 ip_ratio=1.40 aq=0
Output #0, flv, to 'rtmp://218.192.100.219/live/livestream1':
  Metadata:
    encoder         : Lavf58.20.100
    Stream #0:0: Video: h264 (libx264) ([7][0][0][0] / 0x0007), yuv420p, 1920x1080, q=-1--1, 25 fps, 1k tbn, 25 tbc
    Metadata:
      encoder         : Lavc58.35.100 libx264
    Side data:
      cpb: bitrate max/min/avg: 0/0/0 buffer size: 0 vbv_delay: -1
frame=    0 fps=0.0 q=0.0 Lsize=       0kB time=00:00:00.00 bitrate=N/A speed=   0x    
video:0kB audio:0kB subtitle:0kB other streams:0kB global headers:0kB muxing overhead: unknown
[34m[1mdetect: [0mweights=best.pt, source=rtmp://218.192.100.219/live/livestream3, sourceout=rtmp://218.192.100.219/live/livestream1, sourcecheck=http://218.192.100.219:1985/api/v1/streams/, data=data/VisDrone.yaml, imgsz=[640, 640], conf_thres=0.25, iou_thres=0.45, max_det=1000, device=, view_img=False, save_txt=False, save_conf=False, save_crop=False, nosave=False, classes=None, agnostic_nms=False, augment=False, visualize=False, update=False, project=runs/detect, name=exp, exist_ok=False, line_thickness=3, hide_labels=False, hide_conf=False, half=False, dnn=False, vid_stride=1
['ffmpeg', '-y', '-f', 'rawvideo', '-vcodec', 'rawvideo', '-pix_fmt', 'bgr24', '-s', '1920*1080', '-r', '25', '-i', '-', '-c:v', 'h264', '-pix_fmt', 'yuv420p', '-preset', 'ultrafast', '-flvflags', 'no_duration_filesize', '-f', 'flv', 'rtmp://218.192.100.219/live/livestream1']
ffmpeg version 4.1.3 Copyright (c) 2000-2019 the FFmpeg developers
  built with gcc 9 (Ubuntu 9.4.0-1ubuntu1~20.04.1)
  configuration: --disable-x86asm --enable-gpl --enable-libx264
  libavutil      56. 22.100 / 56. 22.100
  libavcodec     58. 35.100 / 58. 35.100
  libavformat    58. 20.100 / 58. 20.100
  libavdevice    58.  5.100 / 58.  5.100
  libavfilter     7. 40.101 /  7. 40.101
  libswscale      5.  3.100 /  5.  3.100
  libswresample   3.  3.100 /  3.  3.100
  libpostproc    55.  3.100 / 55.  3.100
YOLOv5 🚀 2023-1-21 Python-3.7.16 torch-1.13.1+cu117 CUDA:0 (NVIDIA GeForce RTX 3060, 12036MiB)

Fusing layers... 
Model summary: 157 layers, 7037095 parameters, 0 gradients, 15.8 GFLOPs
Traceback (most recent call last):
  File "detect.py", line 334, in <module>
    main(opt)
  File "detect.py", line 329, in main
    run(**vars(opt))
  File "/home/beidou/.conda/envs/yolo/lib/python3.7/site-packages/torch/autograd/grad_mode.py", line 27, in decorate_context
    return func(*args, **kwargs)
  File "detect.py", line 158, in run
    dataset = LoadStreams(source, img_size=imgsz, stride=stride, auto=pt, vid_stride=vid_stride)
  File "/home/beidou/A-Project/AI/yolov5-master/utils/dataloaders.py", line 367, in __init__
    assert cap.isOpened(), f'{st}Failed to open {s}'
AssertionError: 1/1: rtmp://218.192.100.219/live/livestream3... Failed to open rtmp://218.192.100.219/live/livestream3
Input #0, rawvideo, from 'pipe:':
  Duration: N/A, bitrate: 1244160 kb/s
    Stream #0:0: Video: rawvideo (BGR[24] / 0x18524742), bgr24, 1920x1080, 1244160 kb/s, 25 tbr, 25 tbn, 25 tbc
Stream mapping:
  Stream #0:0 -> #0:0 (rawvideo (native) -> h264 (libx264))
[libx264 @ 0x55eb9d543fc0] using cpu capabilities: none!
[libx264 @ 0x55eb9d543fc0] profile Constrained Baseline, level 4.0, 4:2:0, 8-bit
[libx264 @ 0x55eb9d543fc0] 264 - core 164 r3106 eaa68fa - H.264/MPEG-4 AVC codec - Copyleft 2003-2023 - http://www.videolan.org/x264.html - options: cabac=0 ref=1 deblock=0:0:0 analyse=0:0 me=dia subme=0 psy=1 psy_rd=1.00:0.00 mixed_ref=0 me_range=16 chroma_me=1 trellis=0 8x8dct=0 cqm=0 deadzone=21,11 fast_pskip=1 chroma_qp_offset=0 threads=24 lookahead_threads=4 sliced_threads=0 nr=0 decimate=1 interlaced=0 bluray_compat=0 constrained_intra=0 bframes=0 weightp=0 keyint=250 keyint_min=25 scenecut=0 intra_refresh=0 rc=crf mbtree=0 crf=23.0 qcomp=0.60 qpmin=0 qpmax=69 qpstep=4 ip_ratio=1.40 aq=0
Output #0, flv, to 'rtmp://218.192.100.219/live/livestream1':
  Metadata:
    encoder         : Lavf58.20.100
    Stream #0:0: Video: h264 (libx264) ([7][0][0][0] / 0x0007), yuv420p, 1920x1080, q=-1--1, 25 fps, 1k tbn, 25 tbc
    Metadata:
      encoder         : Lavc58.35.100 libx264
    Side data:
      cpb: bitrate max/min/avg: 0/0/0 buffer size: 0 vbv_delay: -1
frame=    0 fps=0.0 q=0.0 Lsize=       0kB time=00:00:00.00 bitrate=N/A speed=   0x    
video:0kB audio:0kB subtitle:0kB other streams:0kB global headers:0kB muxing overhead: unknown
